{
  "asset": {
    "generator": "Khronos glTF Blender I/O v3.2.40",
    "version": "2.0"
  },
  "scene": 0,
  "scenes": [
    {
      "name": "Scene",
      "nodes": [
        5,
        6,
        7,
        8
      ]
    }
  ],
  "nodes": [
    {
      "mesh": 0,
      "name": "Sphere",
      "rotation": [
        -0.013962185010313988,
        0,
        0,
        0.9999025464057922
      ],
      "translation": [
        -0.3870285153388977,
        0.31771737337112427,
        0.2128710150718689
      ]
    },
    {
      "mesh": 1,
      "name": "Sphere.001",
      "rotation": [
        -0.013962185010313988,
        0,
        0,
        0.9999025464057922
      ],
      "translation": [
        0.3004803955554962,
        0.32075655460357666,
        -0.3009754419326782
      ]
    },
    {
      "mesh": 2,
      "name": "Sphere.002",
      "rotation": [
        -0.013962185010313988,
        0,
        0,
        0.9999025464057922
      ],
      "translation": [
        0.22048267722129822,
        0.3345935344696045,
        0.36175090074539185
      ]
    },
    {
      "mesh": 3,
      "name": "Sphere.003",
      "rotation": [
        -0.013962185010313988,
        0,
        0,
        0.9999025464057922
      ],
      "translation": [
        -0.6168999075889587,
        0.24770809710025787,
        -0.18896779417991638
      ]
    },
    {
      "children": [
        0,
        1,
        2,
        3
      ],
      "mesh": 4,
      "name": "Icing",
      "rotation": [
        -0.01396217755973339,
        0,
        0,
        0.9999025464057922
      ],
      "translation": [
        0.004089932888746262,
        0.03631751984357834,
        0.049254514276981354
      ]
    },
    {
      "children": [
        4
      ],
      "mesh": 5,
      "name": "Donut",
      "rotation": [
        0.4795756936073303,
        -0.24499280750751495,
        0.14144666492938995,
        0.8306494951248169
      ],
      "translation": [
        0,
        0.2737877368927002,
        -0.11612081527709961
      ]
    },
    {
      "mesh": 6,
      "name": "Plane",
      "translation": [
        -0.961410403251648,
        0.9579205513000488,
        -3.320733070373535
      ]
    },
    {
      "mesh": 7,
      "name": "Sprinkle.002",
      "rotation": [
        -0.17482082545757294,
        0.06877005100250244,
        -0.08420487493276596,
        0.9785795211791992
      ],
      "scale": [
        0,
        1,
        1
      ],
      "translation": [
        -1.2227976322174072,
        -0.004838477820158005,
        1.0813108682632446
      ]
    },
    {
      "mesh": 8,
      "name": "Sprinkle.003",
      "rotation": [
        -0.1314467489719391,
        0.08486337214708328,
        -0.13803234696388245,
        0.9779913425445557
      ],
      "translation": [
        -1.1600377559661865,
        0.006214212626218796,
        1.057125210762024
      ]
    }
  ],
  "animations": [
    {
      "channels": [
        {
          "sampler": 0,
          "target": {
            "node": 5,
            "path": "rotation"
          }
        }
      ],
      "name": "DonutAction.001",
      "samplers": [
        {
          "input": 34,
          "interpolation": "LINEAR",
          "output": 35
        }
      ]
    }
  ],
  "materials": [
    {
      "doubleSided": true,
      "name": "Material.005",
      "pbrMetallicRoughness": {
        "baseColorFactor": [
          0.05142851173877716,
          0.5906568765640259,
          0.8000000715255737,
          1
        ],
        "metallicFactor": 0,
        "roughnessFactor": 0.238095223903656
      }
    },
    {
      "doubleSided": true,
      "name": "Material.004",
      "pbrMetallicRoughness": {
        "baseColorFactor": [
          0.7044374942779541,
          0.07718576490879059,
          0.7356582283973694,
          1
        ],
        "metallicFactor": 0,
        "roughnessFactor": 0.2853172719478607
      }
    },
    {
      "doubleSided": true,
      "name": "Material.002",
      "pbrMetallicRoughness": {
        "baseColorTexture": {
          "index": 0
        },
        "metallicFactor": 0,
        "roughnessFactor": 0.5
      }
    },
    {
      "doubleSided": true,
      "name": "Material.001",
      "pbrMetallicRoughness": {
        "metallicFactor": 0,
        "roughnessFactor": 0.5
      }
    }
  ],
  "meshes": [
    {
      "name": "Sphere",
      "primitives": [
        {
          "attributes": {
            "POSITION": 0,
            "NORMAL": 1,
            "TEXCOORD_0": 2
          },
          "indices": 3,
          "material": 0
        }
      ]
    },
    {
      "name": "Sphere.001",
      "primitives": [
        {
          "attributes": {
            "POSITION": 4,
            "NORMAL": 5,
            "TEXCOORD_0": 6
          },
          "indices": 3,
          "material": 0
        }
      ]
    },
    {
      "name": "Sphere.002",
      "primitives": [
        {
          "attributes": {
            "POSITION": 7,
            "NORMAL": 8,
            "TEXCOORD_0": 9
          },
          "indices": 3,
          "material": 0
        }
      ]
    },
    {
      "name": "Sphere.003",
      "primitives": [
        {
          "attributes": {
            "POSITION": 10,
            "NORMAL": 11,
            "TEXCOORD_0": 12
          },
          "indices": 3,
          "material": 0
        }
      ]
    },
    {
      "name": "Torus.003",
      "primitives": [
        {
          "attributes": {
            "POSITION": 13,
            "NORMAL": 14,
            "TEXCOORD_0": 15
          },
          "indices": 16,
          "material": 1
        }
      ]
    },
    {
      "name": "Torus",
      "primitives": [
        {
          "attributes": {
            "POSITION": 17,
            "NORMAL": 18,
            "TEXCOORD_0": 19,
            "COLOR_0": 20
          },
          "indices": 21,
          "material": 2
        }
      ]
    },
    {
      "name": "Plane.001",
      "primitives": [
        {
          "attributes": {
            "POSITION": 22,
            "NORMAL": 23,
            "TEXCOORD_0": 24
          },
          "indices": 25
        }
      ]
    },
    {
      "name": "Cylinder.003",
      "primitives": [
        {
          "attributes": {
            "POSITION": 26,
            "NORMAL": 27,
            "TEXCOORD_0": 28
          },
          "indices": 29,
          "material": 3
        }
      ]
    },
    {
      "name": "Cylinder.004",
      "primitives": [
        {
          "attributes": {
            "POSITION": 30,
            "NORMAL": 31,
            "TEXCOORD_0": 32
          },
          "indices": 33,
          "material": 3
        }
      ]
    }
  ],
  "textures": [
    {
      "sampler": 0,
      "source": 0
    }
  ],
  "images": [
    {
      "name": "Donut Base Texture",
      "uri": "donut_img0.png"
    }
  ],
  "accessors": [
    {
      "bufferView": 0,
      "componentType": 5126,
      "count": 2548,
      "max": [
        0.030369795858860016,
        0.03037150762975216,
        0.030364708974957466
      ],
      "min": [
        -0.03036973811686039,
        -0.03037150762975216,
        -0.030371401458978653
      ],
      "type": "VEC3"
    },
    {
      "bufferView": 1,
      "componentType": 5126,
      "count": 2548,
      "type": "VEC3"
    },
    {
      "bufferView": 2,
      "componentType": 5126,
      "count": 2548,
      "type": "VEC2"
    },
    {
      "bufferView": 3,
      "componentType": 5123,
      "count": 13410,
      "type": "SCALAR"
    },
    {
      "bufferView": 4,
      "componentType": 5126,
      "count": 2548,
      "max": [
        0.030369795858860016,
        0.03037150762975216,
        0.030364708974957466
      ],
      "min": [
        -0.03036973811686039,
        -0.03037150762975216,
        -0.030371401458978653
      ],
      "type": "VEC3"
    },
    {
      "bufferView": 5,
      "componentType": 5126,
      "count": 2548,
      "type": "VEC3"
    },
    {
      "bufferView": 6,
      "componentType": 5126,
      "count": 2548,
      "type": "VEC2"
    },
    {
      "bufferView": 7,
      "componentType": 5126,
      "count": 2548,
      "max": [
        0.030369795858860016,
        0.03037150762975216,
        0.030364708974957466
      ],
      "min": [
        -0.03036973811686039,
        -0.03037150762975216,
        -0.030371401458978653
      ],
      "type": "VEC3"
    },
    {
      "bufferView": 8,
      "componentType": 5126,
      "count": 2548,
      "type": "VEC3"
    },
    {
      "bufferView": 9,
      "componentType": 5126,
      "count": 2548,
      "type": "VEC2"
    },
    {
      "bufferView": 10,
      "componentType": 5126,
      "count": 2548,
      "max": [
        0.030369795858860016,
        0.03037150762975216,
        0.030364708974957466
      ],
      "min": [
        -0.03036973811686039,
        -0.03037150762975216,
        -0.030371401458978653
      ],
      "type": "VEC3"
    },
    {
      "bufferView": 11,
      "componentType": 5126,
      "count": 2548,
      "type": "VEC3"
    },
    {
      "bufferView": 12,
      "componentType": 5126,
      "count": 2548,
      "type": "VEC2"
    },
    {
      "bufferView": 13,
      "componentType": 5126,
      "count": 18865,
      "max": [
        0.6223519444465637,
        0.2696160674095154,
        0.5761442184448242
      ],
      "min": [
        -0.6321427822113037,
        -0.10918321460485458,
        -0.6770885586738586
      ],
      "type": "VEC3"
    },
    {
      "bufferView": 14,
      "componentType": 5126,
      "count": 18865,
      "type": "VEC3"
    },
    {
      "bufferView": 15,
      "componentType": 5126,
      "count": 18865,
      "type": "VEC2"
    },
    {
      "bufferView": 16,
      "componentType": 5123,
      "count": 110592,
      "type": "SCALAR"
    },
    {
      "bufferView": 17,
      "componentType": 5126,
      "count": 637,
      "max": [
        0.6698076128959656,
        0.2999999523162842,
        0.6698076128959656
      ],
      "min": [
        -0.6698076128959656,
        -0.2999999523162842,
        -0.6698076128959656
      ],
      "type": "VEC3"
    },
    {
      "bufferView": 18,
      "componentType": 5126,
      "count": 637,
      "type": "VEC3"
    },
    {
      "bufferView": 19,
      "componentType": 5126,
      "count": 637,
      "type": "VEC2"
    },
    {
      "bufferView": 20,
      "componentType": 5123,
      "count": 637,
      "normalized": true,
      "type": "VEC4"
    },
    {
      "bufferView": 21,
      "componentType": 5123,
      "count": 3456,
      "type": "SCALAR"
    },
    {
      "bufferView": 22,
      "componentType": 5126,
      "count": 4,
      "max": [
        1,
        0,
        1
      ],
      "min": [
        -1,
        0,
        -1
      ],
      "type": "VEC3"
    },
    {
      "bufferView": 23,
      "componentType": 5126,
      "count": 4,
      "type": "VEC3"
    },
    {
      "bufferView": 24,
      "componentType": 5126,
      "count": 4,
      "type": "VEC2"
    },
    {
      "bufferView": 25,
      "componentType": 5123,
      "count": 6,
      "type": "SCALAR"
    },
    {
      "bufferView": 26,
      "componentType": 5126,
      "count": 70,
      "max": [
        0.029121069237589836,
        0.05609475076198578,
        0.05579310655593872
      ],
      "min": [
        -0.01941744238138199,
        0.008754144422709942,
        -0.026080166921019554
      ],
      "type": "VEC3"
    },
    {
      "bufferView": 27,
      "componentType": 5126,
      "count": 70,
      "type": "VEC3"
    },
    {
      "bufferView": 28,
      "componentType": 5126,
      "count": 70,
      "type": "VEC2"
    },
    {
      "bufferView": 29,
      "componentType": 5123,
      "count": 276,
      "type": "SCALAR"
    },
    {
      "bufferView": 30,
      "componentType": 5126,
      "count": 88,
      "max": [
        0.0295561496168375,
        0.022475577890872955,
        0.06057228520512581
      ],
      "min": [
        -0.023594515398144722,
        -0.029163019731640816,
        -0.05948781594634056
      ],
      "type": "VEC3"
    },
    {
      "bufferView": 31,
      "componentType": 5126,
      "count": 88,
      "type": "VEC3"
    },
    {
      "bufferView": 32,
      "componentType": 5126,
      "count": 88,
      "type": "VEC2"
    },
    {
      "bufferView": 33,
      "componentType": 5123,
      "count": 372,
      "type": "SCALAR"
    },
    {
      "bufferView": 34,
      "componentType": 5126,
      "count": 348,
      "max": [
        10
      ],
      "min": [
        -1.5666666666666667
      ],
      "type": "SCALAR"
    },
    {
      "bufferView": 35,
      "componentType": 5126,
      "count": 348,
      "type": "VEC4"
    }
  ],
  "bufferViews": [
    {
      "buffer": 0,
      "byteLength": 30576,
      "byteOffset": 0
    },
    {
      "buffer": 0,
      "byteLength": 30576,
      "byteOffset": 30576
    },
    {
      "buffer": 0,
      "byteLength": 20384,
      "byteOffset": 61152
    },
    {
      "buffer": 0,
      "byteLength": 26820,
      "byteOffset": 81536
    },
    {
      "buffer": 0,
      "byteLength": 30576,
      "byteOffset": 108356
    },
    {
      "buffer": 0,
      "byteLength": 30576,
      "byteOffset": 138932
    },
    {
      "buffer": 0,
      "byteLength": 20384,
      "byteOffset": 169508
    },
    {
      "buffer": 0,
      "byteLength": 30576,
      "byteOffset": 189892
    },
    {
      "buffer": 0,
      "byteLength": 30576,
      "byteOffset": 220468
    },
    {
      "buffer": 0,
      "byteLength": 20384,
      "byteOffset": 251044
    },
    {
      "buffer": 0,
      "byteLength": 30576,
      "byteOffset": 271428
    },
    {
      "buffer": 0,
      "byteLength": 30576,
      "byteOffset": 302004
    },
    {
      "buffer": 0,
      "byteLength": 20384,
      "byteOffset": 332580
    },
    {
      "buffer": 0,
      "byteLength": 226380,
      "byteOffset": 352964
    },
    {
      "buffer": 0,
      "byteLength": 226380,
      "byteOffset": 579344
    },
    {
      "buffer": 0,
      "byteLength": 150920,
      "byteOffset": 805724
    },
    {
      "buffer": 0,
      "byteLength": 221184,
      "byteOffset": 956644
    },
    {
      "buffer": 0,
      "byteLength": 7644,
      "byteOffset": 1177828
    },
    {
      "buffer": 0,
      "byteLength": 7644,
      "byteOffset": 1185472
    },
    {
      "buffer": 0,
      "byteLength": 5096,
      "byteOffset": 1193116
    },
    {
      "buffer": 0,
      "byteLength": 5096,
      "byteOffset": 1198212
    },
    {
      "buffer": 0,
      "byteLength": 6912,
      "byteOffset": 1203308
    },
    {
      "buffer": 0,
      "byteLength": 48,
      "byteOffset": 1210220
    },
    {
      "buffer": 0,
      "byteLength": 48,
      "byteOffset": 1210268
    },
    {
      "buffer": 0,
      "byteLength": 32,
      "byteOffset": 1210316
    },
    {
      "buffer": 0,
      "byteLength": 12,
      "byteOffset": 1210348
    },
    {
      "buffer": 0,
      "byteLength": 840,
      "byteOffset": 1210360
    },
    {
      "buffer": 0,
      "byteLength": 840,
      "byteOffset": 1211200
    },
    {
      "buffer": 0,
      "byteLength": 560,
      "byteOffset": 1212040
    },
    {
      "buffer": 0,
      "byteLength": 552,
      "byteOffset": 1212600
    },
    {
      "buffer": 0,
      "byteLength": 1056,
      "byteOffset": 1213152
    },
    {
      "buffer": 0,
      "byteLength": 1056,
      "byteOffset": 1214208
    },
    {
      "buffer": 0,
      "byteLength": 704,
      "byteOffset": 1215264
    },
    {
      "buffer": 0,
      "byteLength": 744,
      "byteOffset": 1215968
    },
    {
      "buffer": 0,
      "byteLength": 1392,
      "byteOffset": 1216712
    },
    {
      "buffer": 0,
      "byteLength": 5568,
      "byteOffset": 1218104
    }
  ],
  "samplers": [
    {
      "magFilter": 9729,
      "minFilter": 9987
    }
  ],
  "buffers": [
    {
      "uri": "donut_data.bin",
      "byteLength": 1223672
    }
  ]
}